<?xml version="1.0" standalone="no"?>
<!DOCTYPE svg PUBLIC "-//W3C//DTD SVG 20010904//EN"
 "http://www.w3.org/TR/2001/REC-SVG-20010904/DTD/svg10.dtd">
<svg version="1.0" xmlns="http://www.w3.org/2000/svg"
 width="337.000000pt" height="291.000000pt" viewBox="0 0 337.000000 291.000000"
 preserveAspectRatio="xMidYMid meet">

<g transform="translate(0.000000,291.000000) scale(0.100000,-0.100000)"
fill="#000000" stroke="none">
<path d="M1635 2622 l-40 -7 -3 -111 -3 -111 -57 -13 c-31 -7 -61 -14 -67 -16
-5 -2 -32 39 -60 91 -27 52 -56 95 -64 95 -20 0 -210 -96 -244 -124 l-28 -23
51 -96 52 -97 -49 -45 c-26 -24 -51 -44 -55 -45 -4 0 -46 27 -93 61 -74 52
-88 59 -102 47 -22 -18 -113 -142 -146 -199 -31 -53 -35 -47 73 -120 35 -24
68 -47 73 -50 9 -7 -30 -126 -44 -134 -7 -5 -75 3 -185 20 -30 5 -32 3 -42
-37 -6 -24 -16 -94 -23 -156 -10 -92 -10 -115 0 -122 8 -4 49 -11 94 -15 120
-10 123 -12 131 -86 4 -45 3 -65 -6 -70 -7 -4 -52 -22 -100 -39 -48 -17 -90
-35 -93 -40 -7 -11 48 -177 80 -240 29 -58 18 -57 145 -9 41 16 79 29 85 29 6
0 28 -25 48 -56 l38 -55 -77 -84 -76 -84 54 -57 c58 -62 170 -154 186 -154 6
0 17 8 24 18 7 10 38 47 70 81 l56 62 61 -31 c34 -18 61 -37 61 -44 0 -6 -11
-51 -25 -101 -14 -49 -25 -95 -25 -101 0 -14 143 -61 233 -76 55 -9 70 -9 77
2 4 7 18 55 30 106 l23 94 72 0 73 0 21 -98 c29 -126 28 -124 48 -119 10 3 41
8 68 12 81 10 207 48 212 63 3 7 -4 59 -17 113 -12 55 -21 101 -19 103 10 9
109 56 118 56 5 0 39 -36 77 -80 37 -44 72 -80 79 -80 23 0 235 182 235 202 0
4 -31 44 -70 89 -44 50 -67 85 -62 93 4 7 22 33 41 58 28 40 37 45 55 38 11
-5 54 -22 95 -39 41 -17 79 -31 86 -31 23 0 134 268 120 290 -3 4 -42 22 -87
40 -127 51 -117 39 -104 117 l11 68 45 7 c25 3 73 7 108 7 49 1 64 5 69 18 7
17 -12 237 -24 282 -6 23 -7 23 -92 17 -47 -4 -97 -10 -111 -13 -24 -4 -27 0
-44 54 -10 32 -21 63 -23 69 -2 7 37 38 86 69 50 32 91 63 91 69 0 28 -153
256 -171 256 -6 0 -49 -25 -95 -55 -47 -30 -88 -55 -92 -55 -4 0 -29 21 -55
48 l-46 47 25 45 c14 25 39 68 55 96 l29 52 -80 52 c-81 51 -175 100 -196 100
-6 0 -23 -24 -39 -52 -72 -136 -74 -137 -103 -128 -15 5 -46 14 -68 20 l-42
10 6 109 c5 107 5 108 -19 115 -36 9 -259 16 -304 8z m279 -547 c324 -85 530
-385 489 -714 -33 -261 -227 -479 -488 -546 -76 -19 -233 -19 -310 0 -111 28
-219 89 -298 169 -82 83 -127 153 -165 258 -23 65 -26 88 -26 203 0 115 3 138
26 203 38 107 83 177 165 259 78 77 186 139 293 167 74 20 241 20 314 1z"/>
</g>
</svg>
